<svg height="2894" width="720" xmlns="http://www.w3.org/2000/svg">
<rect height="2894" fill="#555" width="720"></rect>
<text fill="#7f7" font-family="Courier New" font-size="12" xml:space="preserve">
<tspan x="10" y="26">15 megabytes installed</tspan>
<tspan x="10" y="42"></tspan>
<tspan x="10" y="58">node_modules</tspan>
<tspan x="10" y="74">└─┬ fontmin@0.9.6 </tspan>
<tspan x="10" y="90">  ├── b3b@0.0.1 </tspan>
<tspan x="10" y="106">  ├─┬ buffer-to-vinyl@1.1.0 </tspan>
<tspan x="10" y="122">  │ ├── file-type@3.9.0 </tspan>
<tspan x="10" y="138">  │ ├─┬ readable-stream@2.2.9 </tspan>
<tspan x="10" y="154">  │ │ ├── buffer-shims@1.0.0 </tspan>
<tspan x="10" y="170">  │ │ ├── core-util-is@1.0.2 </tspan>
<tspan x="10" y="186">  │ │ ├── isarray@1.0.0 </tspan>
<tspan x="10" y="202">  │ │ ├── process-nextick-args@1.0.7 </tspan>
<tspan x="10" y="218">  │ │ ├── string_decoder@1.0.0 </tspan>
<tspan x="10" y="234">  │ │ └── util-deprecate@1.0.2 </tspan>
<tspan x="10" y="250">  │ ├── uuid@2.0.3 </tspan>
<tspan x="10" y="266">  │ └─┬ vinyl@1.2.0 </tspan>
<tspan x="10" y="282">  │   ├── clone@1.0.2 </tspan>
<tspan x="10" y="298">  │   └── clone-stats@0.0.1 </tspan>
<tspan x="10" y="314">  ├─┬ concat-stream@1.6.0 </tspan>
<tspan x="10" y="330">  │ ├── inherits@2.0.3 </tspan>
<tspan x="10" y="346">  │ └── typedarray@0.0.6 </tspan>
<tspan x="10" y="362">  ├─┬ fonteditor-core@0.0.21 </tspan>
<tspan x="10" y="378">  │ └── xmldom@0.1.27 </tspan>
<tspan x="10" y="394">  ├── get-stdin@5.0.1 </tspan>
<tspan x="10" y="410">  ├── is-otf@0.1.2 </tspan>
<tspan x="10" y="426">  ├── is-svg@1.1.1 </tspan>
<tspan x="10" y="442">  ├── is-ttf@0.2.2 </tspan>
<tspan x="10" y="458">  ├── lodash@4.17.4 </tspan>
<tspan x="10" y="474">  ├─┬ meow@3.7.0 </tspan>
<tspan x="10" y="490">  │ ├─┬ camelcase-keys@2.1.0 </tspan>
<tspan x="10" y="506">  │ │ └── camelcase@2.1.1 </tspan>
<tspan x="10" y="522">  │ ├── decamelize@1.2.0 </tspan>
<tspan x="10" y="538">  │ ├─┬ loud-rejection@1.6.0 </tspan>
<tspan x="10" y="554">  │ │ ├─┬ currently-unhandled@0.4.1 </tspan>
<tspan x="10" y="570">  │ │ │ └── array-find-index@1.0.2 </tspan>
<tspan x="10" y="586">  │ │ └── signal-exit@3.0.2 </tspan>
<tspan x="10" y="602">  │ ├── map-obj@1.0.1 </tspan>
<tspan x="10" y="618">  │ ├── minimist@1.2.0 </tspan>
<tspan x="10" y="634">  │ ├─┬ normalize-package-data@2.3.8 </tspan>
<tspan x="10" y="650">  │ │ ├── hosted-git-info@2.4.2 </tspan>
<tspan x="10" y="666">  │ │ ├─┬ is-builtin-module@1.0.0 </tspan>
<tspan x="10" y="682">  │ │ │ └── builtin-modules@1.1.1 </tspan>
<tspan x="10" y="698">  │ │ ├── semver@5.3.0 </tspan>
<tspan x="10" y="714">  │ │ └─┬ validate-npm-package-license@3.0.1 </tspan>
<tspan x="10" y="730">  │ │   ├─┬ spdx-correct@1.0.2 </tspan>
<tspan x="10" y="746">  │ │   │ └── spdx-license-ids@1.2.2 </tspan>
<tspan x="10" y="762">  │ │   └── spdx-expression-parse@1.0.4 </tspan>
<tspan x="10" y="778">  │ ├── object-assign@4.1.1 </tspan>
<tspan x="10" y="794">  │ ├─┬ read-pkg-up@1.0.1 </tspan>
<tspan x="10" y="810">  │ │ ├─┬ find-up@1.1.2 </tspan>
<tspan x="10" y="826">  │ │ │ ├── path-exists@2.1.0 </tspan>
<tspan x="10" y="842">  │ │ │ └─┬ pinkie-promise@2.0.1 </tspan>
<tspan x="10" y="858">  │ │ │   └── pinkie@2.0.4 </tspan>
<tspan x="10" y="874">  │ │ └─┬ read-pkg@1.1.0 </tspan>
<tspan x="10" y="890">  │ │   ├─┬ load-json-file@1.1.0 </tspan>
<tspan x="10" y="906">  │ │   │ ├─┬ parse-json@2.2.0 </tspan>
<tspan x="10" y="922">  │ │   │ │ └─┬ error-ex@1.3.1 </tspan>
<tspan x="10" y="938">  │ │   │ │   └── is-arrayish@0.2.1 </tspan>
<tspan x="10" y="954">  │ │   │ └── pify@2.3.0 </tspan>
<tspan x="10" y="970">  │ │   └── path-type@1.1.0 </tspan>
<tspan x="10" y="986">  │ ├─┬ redent@1.0.0 </tspan>
<tspan x="10" y="1002">  │ │ ├─┬ indent-string@2.1.0 </tspan>
<tspan x="10" y="1018">  │ │ │ └─┬ repeating@2.0.1 </tspan>
<tspan x="10" y="1034">  │ │ │   └─┬ is-finite@1.0.2 </tspan>
<tspan x="10" y="1050">  │ │ │     └── number-is-nan@1.0.1 </tspan>
<tspan x="10" y="1066">  │ │ └─┬ strip-indent@1.0.1 </tspan>
<tspan x="10" y="1082">  │ │   └── get-stdin@4.0.1 </tspan>
<tspan x="10" y="1098">  │ └── trim-newlines@1.0.0 </tspan>
<tspan x="10" y="1114">  ├── pako@1.0.5 </tspan>
<tspan x="10" y="1130">  ├── replace-ext@0.0.1 </tspan>
<tspan x="10" y="1146">  ├─┬ stream-combiner@0.2.2 </tspan>
<tspan x="10" y="1162">  │ ├── duplexer@0.1.1 </tspan>
<tspan x="10" y="1178">  │ └── through@2.3.8 </tspan>
<tspan x="10" y="1194">  ├─┬ through2@2.0.1 </tspan>
<tspan x="10" y="1210">  │ ├─┬ readable-stream@2.0.6 </tspan>
<tspan x="10" y="1226">  │ │ └── string_decoder@0.10.31 </tspan>
<tspan x="10" y="1242">  │ └── xtend@4.0.1 </tspan>
<tspan x="10" y="1258">  └─┬ vinyl-fs@2.4.3 </tspan>
<tspan x="10" y="1274">    ├─┬ duplexify@3.5.0 </tspan>
<tspan x="10" y="1290">    │ ├─┬ end-of-stream@1.0.0 </tspan>
<tspan x="10" y="1306">    │ │ └─┬ once@1.3.3 </tspan>
<tspan x="10" y="1322">    │ │   └── wrappy@1.0.2 </tspan>
<tspan x="10" y="1338">    │ └── stream-shift@1.0.0 </tspan>
<tspan x="10" y="1354">    ├─┬ glob-stream@5.3.5 </tspan>
<tspan x="10" y="1370">    │ ├── extend@3.0.0 </tspan>
<tspan x="10" y="1386">    │ ├─┬ glob@5.0.15 </tspan>
<tspan x="10" y="1402">    │ │ ├── inflight@1.0.6 </tspan>
<tspan x="10" y="1418">    │ │ ├─┬ minimatch@3.0.3 </tspan>
<tspan x="10" y="1434">    │ │ │ └─┬ brace-expansion@1.1.7 </tspan>
<tspan x="10" y="1450">    │ │ │   ├── balanced-match@0.4.2 </tspan>
<tspan x="10" y="1466">    │ │ │   └── concat-map@0.0.1 </tspan>
<tspan x="10" y="1482">    │ │ └── path-is-absolute@1.0.1 </tspan>
<tspan x="10" y="1498">    │ ├─┬ glob-parent@3.1.0 </tspan>
<tspan x="10" y="1514">    │ │ ├─┬ is-glob@3.1.0 </tspan>
<tspan x="10" y="1530">    │ │ │ └── is-extglob@2.1.1 </tspan>
<tspan x="10" y="1546">    │ │ └── path-dirname@1.0.2 </tspan>
<tspan x="10" y="1562">    │ ├─┬ micromatch@2.3.11 </tspan>
<tspan x="10" y="1578">    │ │ ├─┬ arr-diff@2.0.0 </tspan>
<tspan x="10" y="1594">    │ │ │ └── arr-flatten@1.0.3 </tspan>
<tspan x="10" y="1610">    │ │ ├── array-unique@0.2.1 </tspan>
<tspan x="10" y="1626">    │ │ ├─┬ braces@1.8.5 </tspan>
<tspan x="10" y="1642">    │ │ │ ├─┬ expand-range@1.8.2 </tspan>
<tspan x="10" y="1658">    │ │ │ │ └─┬ fill-range@2.2.3 </tspan>
<tspan x="10" y="1674">    │ │ │ │   ├── is-number@2.1.0 </tspan>
<tspan x="10" y="1690">    │ │ │ │   ├── isobject@2.1.0 </tspan>
<tspan x="10" y="1706">    │ │ │ │   ├── randomatic@1.1.6 </tspan>
<tspan x="10" y="1722">    │ │ │ │   └── repeat-string@1.6.1 </tspan>
<tspan x="10" y="1738">    │ │ │ ├── preserve@0.2.0 </tspan>
<tspan x="10" y="1754">    │ │ │ └── repeat-element@1.1.2 </tspan>
<tspan x="10" y="1770">    │ │ ├─┬ expand-brackets@0.1.5 </tspan>
<tspan x="10" y="1786">    │ │ │ └── is-posix-bracket@0.1.1 </tspan>
<tspan x="10" y="1802">    │ │ ├─┬ extglob@0.3.2 </tspan>
<tspan x="10" y="1818">    │ │ │ └── is-extglob@1.0.0 </tspan>
<tspan x="10" y="1834">    │ │ ├── filename-regex@2.0.0 </tspan>
<tspan x="10" y="1850">    │ │ ├── is-extglob@1.0.0 </tspan>
<tspan x="10" y="1866">    │ │ ├── is-glob@2.0.1 </tspan>
<tspan x="10" y="1882">    │ │ ├─┬ kind-of@3.1.0 </tspan>
<tspan x="10" y="1898">    │ │ │ └── is-buffer@1.1.5 </tspan>
<tspan x="10" y="1914">    │ │ ├─┬ normalize-path@2.1.1 </tspan>
<tspan x="10" y="1930">    │ │ │ └── remove-trailing-separator@1.0.1 </tspan>
<tspan x="10" y="1946">    │ │ ├─┬ object.omit@2.0.1 </tspan>
<tspan x="10" y="1962">    │ │ │ ├─┬ for-own@0.1.5 </tspan>
<tspan x="10" y="1978">    │ │ │ │ └── for-in@1.0.2 </tspan>
<tspan x="10" y="1994">    │ │ │ └── is-extendable@0.1.1 </tspan>
<tspan x="10" y="2010">    │ │ ├─┬ parse-glob@3.0.4 </tspan>
<tspan x="10" y="2026">    │ │ │ ├─┬ glob-base@0.3.0 </tspan>
<tspan x="10" y="2042">    │ │ │ │ ├── glob-parent@2.0.0 </tspan>
<tspan x="10" y="2058">    │ │ │ │ └─┬ is-glob@2.0.1 </tspan>
<tspan x="10" y="2074">    │ │ │ │   └── is-extglob@1.0.0 </tspan>
<tspan x="10" y="2090">    │ │ │ ├── is-dotfile@1.0.2 </tspan>
<tspan x="10" y="2106">    │ │ │ ├── is-extglob@1.0.0 </tspan>
<tspan x="10" y="2122">    │ │ │ └── is-glob@2.0.1 </tspan>
<tspan x="10" y="2138">    │ │ └─┬ regex-cache@0.4.3 </tspan>
<tspan x="10" y="2154">    │ │   ├── is-equal-shallow@0.1.3 </tspan>
<tspan x="10" y="2170">    │ │   └── is-primitive@2.0.0 </tspan>
<tspan x="10" y="2186">    │ ├─┬ ordered-read-streams@0.3.0 </tspan>
<tspan x="10" y="2202">    │ │ └── is-stream@1.1.0 </tspan>
<tspan x="10" y="2218">    │ ├─┬ through2@0.6.5 </tspan>
<tspan x="10" y="2234">    │ │ └─┬ readable-stream@1.0.34 </tspan>
<tspan x="10" y="2250">    │ │   ├── isarray@0.0.1 </tspan>
<tspan x="10" y="2266">    │ │   └── string_decoder@0.10.31 </tspan>
<tspan x="10" y="2282">    │ ├─┬ to-absolute-glob@0.1.1 </tspan>
<tspan x="10" y="2298">    │ │ └── extend-shallow@2.0.1 </tspan>
<tspan x="10" y="2314">    │ └─┬ unique-stream@2.2.1 </tspan>
<tspan x="10" y="2330">    │   └─┬ json-stable-stringify@1.0.1 </tspan>
<tspan x="10" y="2346">    │     └── jsonify@0.0.0 </tspan>
<tspan x="10" y="2362">    ├── graceful-fs@4.1.11 </tspan>
<tspan x="10" y="2378">    ├─┬ gulp-sourcemaps@1.12.0 </tspan>
<tspan x="10" y="2394">    │ ├─┬ @gulp-sourcemaps/map-sources@1.0.0 </tspan>
<tspan x="10" y="2410">    │ │ └── through2@2.0.3 </tspan>
<tspan x="10" y="2426">    │ ├── acorn@4.0.11 </tspan>
<tspan x="10" y="2442">    │ ├── convert-source-map@1.5.0 </tspan>
<tspan x="10" y="2458">    │ ├─┬ css@2.2.1 </tspan>
<tspan x="10" y="2474">    │ │ ├─┬ source-map@0.1.43 </tspan>
<tspan x="10" y="2490">    │ │ │ └── amdefine@1.0.1 </tspan>
<tspan x="10" y="2506">    │ │ ├─┬ source-map-resolve@0.3.1 </tspan>
<tspan x="10" y="2522">    │ │ │ ├── atob@1.1.3 </tspan>
<tspan x="10" y="2538">    │ │ │ ├── resolve-url@0.2.1 </tspan>
<tspan x="10" y="2554">    │ │ │ └── source-map-url@0.3.0 </tspan>
<tspan x="10" y="2570">    │ │ └── urix@0.1.0 </tspan>
<tspan x="10" y="2586">    │ ├─┬ debug-fabulous@0.0.4 </tspan>
<tspan x="10" y="2602">    │ │ ├─┬ debug@2.6.4 </tspan>
<tspan x="10" y="2618">    │ │ │ └── ms@0.7.3 </tspan>
<tspan x="10" y="2634">    │ │ ├── lazy-debug-legacy@0.0.1 </tspan>
<tspan x="10" y="2650">    │ │ └── object-assign@4.1.0 </tspan>
<tspan x="10" y="2666">    │ ├── detect-newline@2.1.0 </tspan>
<tspan x="10" y="2682">    │ └── source-map@0.5.6 </tspan>
<tspan x="10" y="2698">    ├── is-valid-glob@0.3.0 </tspan>
<tspan x="10" y="2714">    ├── lazystream@1.0.0 </tspan>
<tspan x="10" y="2730">    ├── lodash.isequal@4.5.0 </tspan>
<tspan x="10" y="2746">    ├── merge-stream@1.0.1 </tspan>
<tspan x="10" y="2762">    ├─┬ mkdirp@0.5.1 </tspan>
<tspan x="10" y="2778">    │ └── minimist@0.0.8 </tspan>
<tspan x="10" y="2794">    ├─┬ strip-bom@2.0.0 </tspan>
<tspan x="10" y="2810">    │ └── is-utf8@0.2.1 </tspan>
<tspan x="10" y="2826">    ├─┬ strip-bom-stream@1.0.0 </tspan>
<tspan x="10" y="2842">    │ └── first-chunk-stream@1.0.0 </tspan>
<tspan x="10" y="2858">    ├── through2-filter@2.0.0 </tspan>
<tspan x="10" y="2874">    └── vali-date@1.0.0</tspan>
</text>
</svg>
